# xmcd CD database file
#
# Track frame offsets:
#	150
#	18107
#	58788
#	76260
#	115550
#	128846
#	156197
#	168388
#	206406
#	217347
#	253891
#	265662
#
# Disc length: 3651 seconds
#
# Revision: 0
# Processed by: cddbd v1.5.1PL0 Copyright (c) Steve Scherf et al.
# Submitted via: CDex 1.51
#
DISCID=a10e410c
DTITLE=Bob Milne - Red River Valley
DYEAR=2004
DGENRE=Jazz
TTITLE0=Old Paint
TTITLE1=Crazy, Goodnight Irene, Lovesick Blues
TTITLE2=Fraulein
TTITLE3=I Am a Man of Constant Sorrow, Last Date, Have I Told You Lately That I Love You?
TTITLE4=Blue Eyes Cryin' In the Rain
TTITLE5=I'll Fly Away, Tennessee Waltz, Movin' On
TTITLE6=Red River Valley
TTITLE7=Folsom Prison Blues, Alius Brown, Blue Bayou
TTITLE8=Do What You Do Do Well
TTITLE9=Keep On the Sunny Side, Forty Times, Jambalaya
TTITLE10=Casey Jones
TTITLE11=Boo-Hoo-Hoo
EXTD=YEAR: 2004
EXTT0=
EXTT1=
EXTT2=
EXTT3=
EXTT4=
EXTT5=
EXTT6=
EXTT7=
EXTT8=
EXTT9=
EXTT10=
EXTT11=
PLAYORDER=
